<svg xmlns="http://www.w3.org/2000/svg" width="1000" height="1000"><defs><linearGradient x1="50%" y1="0%" x2="50%" y2="99.258%" id="a"><stop stop-color="#2aabee" offset="0%"/><stop stop-color="#229ed9" offset="100%"/></linearGradient></defs><g fill-rule="evenodd"><circle fill="url(#a)" cx="500" cy="500" r="500"/><path d="M226.328 494.722l291.589-125.6c138.855-57.755 167.708-67.787 186.514-68.119 4.136-.073 13.384.952 19.375 5.813 5.058 4.105 6.45 9.649 7.116 13.541s1.495 12.756.836 19.683c-7.525 79.062-40.084 270.924-56.648 359.475-7.009 37.469-20.81 50.032-34.17 51.262-29.036 2.672-51.085-19.189-79.207-37.624L450.15 638.2c-49.366-32.531-17.364-50.411 10.769-79.631 7.363-7.647 135.296-124.012 137.772-134.568.31-1.32.597-6.241-2.326-8.84s-7.239-1.71-10.352-1.003c-4.414 1.002-74.715 47.468-210.903 139.399-19.955 13.702-38.029 20.379-54.223 20.029-17.853-.386-52.194-10.094-77.723-18.393-31.313-10.178-56.199-15.56-54.032-32.846 1.129-9.004 13.528-18.212 37.197-27.624z" fill="#fff"/></g></svg>